<mxfile host="app.diagrams.net" modified="2020-12-02T17:29:59.081Z" agent="5.0 (Windows)" etag="2yjHd_OBEjnbc-I1xAXJ" version="13.10.5" type="github">
  <diagram id="Pqlc716QHQSJm35RJsEu" name="Page-1">
    <mxGraphModel dx="1038" dy="547" grid="1" gridSize="10" guides="1" tooltips="1" connect="1" arrows="1" fold="1" page="1" pageScale="1" pageWidth="1169" pageHeight="827" math="0" shadow="0">
      <root>
        <mxCell id="0" />
        <mxCell id="1" parent="0" />
        <mxCell id="e2lktKPJc9hpXsIobjqQ-1" value="Training - Payment and Orientation" style="swimlane;html=1;childLayout=stackLayout;resizeParent=1;resizeParentMax=0;horizontal=1;startSize=20;horizontalStack=0;" vertex="1" parent="1">
          <mxGeometry x="10" y="10" width="1150" height="480" as="geometry" />
        </mxCell>
        <mxCell id="e2lktKPJc9hpXsIobjqQ-2" value="Student" style="swimlane;html=1;startSize=20;horizontal=0;" vertex="1" parent="e2lktKPJc9hpXsIobjqQ-1">
          <mxGeometry y="20" width="1150" height="220" as="geometry" />
        </mxCell>
        <mxCell id="e2lktKPJc9hpXsIobjqQ-5" value="Start" style="rounded=1;whiteSpace=wrap;html=1;" vertex="1" parent="e2lktKPJc9hpXsIobjqQ-2">
          <mxGeometry x="210" y="10" width="120" height="60" as="geometry" />
        </mxCell>
        <mxCell id="e2lktKPJc9hpXsIobjqQ-8" value="Upon acceptance of placement, student pays a minimum amount of Kshs. 4,000 to start the program" style="rounded=0;whiteSpace=wrap;html=1;" vertex="1" parent="e2lktKPJc9hpXsIobjqQ-2">
          <mxGeometry x="180" y="140" width="180" height="70" as="geometry" />
        </mxCell>
        <mxCell id="e2lktKPJc9hpXsIobjqQ-7" value="" style="edgeStyle=orthogonalEdgeStyle;rounded=0;orthogonalLoop=1;jettySize=auto;html=1;entryX=0.5;entryY=0;entryDx=0;entryDy=0;" edge="1" parent="e2lktKPJc9hpXsIobjqQ-2" source="e2lktKPJc9hpXsIobjqQ-5" target="e2lktKPJc9hpXsIobjqQ-8">
          <mxGeometry relative="1" as="geometry">
            <mxPoint x="270" y="150" as="targetPoint" />
          </mxGeometry>
        </mxCell>
        <mxCell id="e2lktKPJc9hpXsIobjqQ-3" value="Lane 2" style="swimlane;html=1;startSize=20;horizontal=0;" vertex="1" parent="e2lktKPJc9hpXsIobjqQ-1">
          <mxGeometry y="240" width="1150" height="120" as="geometry" />
        </mxCell>
        <mxCell id="e2lktKPJc9hpXsIobjqQ-4" value="Lane 3" style="swimlane;html=1;startSize=20;horizontal=0;" vertex="1" parent="e2lktKPJc9hpXsIobjqQ-1">
          <mxGeometry y="360" width="1150" height="120" as="geometry" />
        </mxCell>
      </root>
    </mxGraphModel>
  </diagram>
</mxfile>
